<svg version="1.1" id="Layer_1" xmlns="http://www.w3.org/2000/svg" xmlns:xlink="http://www.w3.org/1999/xlink" x="0px" y="0px" width="100%" viewBox="0 0 200 300" enable-background="new 0 0 200 300" xml:space="preserve">

<path fill="#387ACB" opacity="1.000000" stroke="none" d="
M65.834587,245.004089 
	C66.891220,246.459915 67.628609,248.522751 69.056076,249.273499 
	C78.610367,254.298508 88.248734,259.178375 98.023811,263.755127 
	C99.763687,264.569763 102.578300,264.410217 104.368904,263.572449 
	C113.393188,259.350433 122.108765,254.452301 131.211884,250.422150 
	C135.538345,248.506744 140.486649,247.995926 145.167175,246.845383 
	C146.869873,252.256836 145.063232,254.631577 141.461334,256.407745 
	C129.245682,262.431549 117.158203,268.720276 104.856506,274.559692 
	C102.792542,275.539398 99.497421,275.657104 97.469276,274.697540 
	C85.010544,268.803040 72.838638,262.302765 60.385609,256.395538 
	C55.333031,253.998764 55.961372,249.996796 56.537685,245.436371 
	C59.973537,245.002335 62.904064,245.003220 65.834587,245.004089 
z" data-index="1" style="visibility: visible; opacity: 1;"></path>
<path fill="#44BDC2" opacity="1.000000" stroke="none" d="
M56.170406,51.002327 
	C57.468563,49.294174 58.402340,46.887897 60.123238,45.989689 
	C72.501953,39.528736 84.982742,33.252731 97.589607,27.250896 
	C99.500107,26.341354 102.600983,26.384140 104.524559,27.301096 
	C117.128746,33.309410 129.534698,39.731899 142.065811,45.896290 
	C145.469223,47.570515 146.550095,49.993877 145.386871,54.952881 
	C140.416565,53.773075 135.286423,53.291855 130.799866,51.335041 
	C121.821152,47.418964 113.268951,42.533939 104.363449,38.433865 
	C102.466187,37.560368 99.489922,37.604534 97.562248,38.463535 
	C87.878624,42.778706 78.377998,47.504562 68.154373,51.784706 
	C63.720566,51.322937 59.945484,51.162632 56.170406,51.002327 
z" data-index="2" style="visibility: visible; opacity: 1;"></path>
<path fill="#4AA9C5" opacity="1.000000" stroke="none" d="
M102.724419,117.145447 
	C90.241493,111.038979 77.758560,104.932518 65.281403,98.227379 
	C68.075310,97.085846 70.890915,96.651711 73.640686,95.956963 
	C75.148621,95.575966 76.545464,94.755280 77.992393,94.132843 
	C90.890198,100.553246 103.787994,106.973648 116.521667,113.832275 
	C114.305313,114.513557 112.218994,114.600494 110.209442,115.039093 
	C107.681610,115.590820 105.216560,116.430191 102.724419,117.145447 
z" data-index="3" style="visibility: visible; opacity: 1;"></path>
<path fill="#4AA3C6" opacity="1.000000" stroke="none" d="
M102.962616,117.409912 
	C105.216560,116.430191 107.681610,115.590820 110.209442,115.039093 
	C112.218994,114.600494 114.305313,114.513557 116.746635,114.098434 
	C125.755714,118.086937 134.399796,122.198570 142.985565,126.428596 
	C147.300430,128.554443 145.726273,132.663727 145.463898,136.567902 
	C142.026840,137.001999 139.095535,137.002808 136.164215,137.003616 
	C134.961319,135.460999 134.080551,133.307037 132.502853,132.475769 
	C122.823128,127.375679 112.985718,122.574852 102.962616,117.409912 
z" data-index="4" style="visibility: visible; opacity: 1;"></path>
<path fill="#448EC9" opacity="1.000000" stroke="none" d="
M123.130310,185.252121 
	C112.523064,190.567764 101.915810,195.883408 90.529449,201.051605 
	C87.820374,200.602585 85.895073,200.266113 83.959389,200.007446 
	C80.894836,199.597977 77.823326,199.240601 74.754761,198.861176 
	C86.275574,193.000488 97.796394,187.139786 109.763123,181.598785 
	C112.174652,182.278793 114.171234,182.521652 116.098030,183.029358 
	C118.472496,183.655014 120.788841,184.501221 123.130310,185.252121 
z" data-index="5" style="visibility: visible; opacity: 1;"></path>
<path fill="#4088C9" opacity="1.000000" stroke="none" d="
M74.408615,198.914276 
	C77.823326,199.240601 80.894836,199.597977 83.959389,200.007446 
	C85.895073,200.266113 87.820374,200.602585 90.185989,201.081451 
	C85.004868,204.236771 79.610657,207.802872 73.711723,210.035370 
	C67.185890,212.505142 64.819092,216.541534 65.467674,223.558380 
	C62.026745,224.004028 59.095535,224.005692 56.164326,224.007355 
	C55.288857,208.247604 55.287453,208.244797 69.163811,201.314163 
	C70.783394,200.505264 72.428955,199.748367 74.408615,198.914276 
z" data-index="6" style="visibility: visible; opacity: 1;"></path>
<path fill="#4793C8" opacity="1.000000" stroke="none" d="
M123.483078,185.177490 
	C120.788841,184.501221 118.472496,183.655014 116.098030,183.029358 
	C114.171234,182.521652 112.174652,182.278793 110.106293,181.541183 
	C117.152390,177.495071 124.189362,173.579758 131.498093,170.263351 
	C135.052994,168.650269 136.718887,166.656021 136.540253,162.415573 
	C139.973373,162.002579 142.903915,162.003571 145.834473,162.004547 
	C147.626785,170.727661 144.697235,176.488022 135.842377,179.292511 
	C131.647568,180.621063 127.826332,183.129166 123.483078,185.177490 
z" data-index="7" style="visibility: visible; opacity: 1;"></path>
<path fill="#46AEC4" opacity="1.000000" stroke="none" d="
M77.711472,93.915848 
	C76.545464,94.755280 75.148621,95.575966 73.640686,95.956963 
	C70.890915,96.651711 68.075310,97.085846 65.063622,97.971680 
	C55.998577,94.562897 55.995331,94.562897 55.999157,85.345238 
	C56.000599,81.872833 56.020950,78.400436 56.537464,74.463989 
	C59.973171,73.999916 62.904102,73.999878 65.835030,73.999840 
	C65.879692,74.329262 66.016632,74.676918 65.955635,74.985451 
	C64.023407,84.759499 67.679993,91.094460 77.711472,93.915848 
z" data-index="8" style="visibility: visible; opacity: 1;"></path>
<path fill="#499AC6" opacity="1.000000" stroke="none" d="
M145.902527,161.539886 
	C142.903915,162.003571 139.973373,162.002579 136.604172,162.003067 
	C136.122284,153.980637 136.079041,145.956726 136.100006,137.468216 
	C139.095535,137.002808 142.026840,137.001999 145.396881,137.002441 
	C145.880600,145.027512 145.925598,153.051361 145.902527,161.539886 
z" data-index="9" style="visibility: visible; opacity: 1;"></path>
<path fill="#43B6C2" opacity="1.000000" stroke="none" d="
M65.900688,73.535278 
	C62.904102,73.999878 59.973171,73.999916 56.603607,73.999893 
	C56.121937,66.643532 56.078903,59.287228 56.103142,51.466625 
	C59.945484,51.162632 63.720566,51.322937 67.774918,51.795296 
	C67.369385,53.600300 66.162727,55.069492 66.093506,56.590462 
	C65.843887,62.074448 65.977486,67.575874 65.900688,73.535278 
z" data-index="10" style="visibility: visible; opacity: 1;"></path>
<path fill="#3A7FCA" opacity="1.000000" stroke="none" d="
M56.100052,224.471542 
	C59.095535,224.005692 62.026745,224.004028 65.396812,224.004883 
	C65.881813,230.696762 65.927956,237.386139 65.904343,244.539795 
	C62.904064,245.003220 59.973537,245.002335 56.604225,245.002777 
	C56.122219,238.314621 56.078999,231.625183 56.100052,224.471542 
z" data-index="11" style="opacity: 1; visibility: visible;"></path>
</svg>