<?xml version="1.0" encoding="utf-8"?>
<!-- Generator: Adobe Illustrator 27.5.0, SVG Export Plug-In . SVG Version: 6.00 Build 0)  -->
<svg version="1.1" id="_x2018_ëîé_x5F_1" xmlns="http://www.w3.org/2000/svg" xmlns:xlink="http://www.w3.org/1999/xlink"
	 x="0px" y="0px" viewBox="0 0 3200 2000" style="enable-background:new 0 0 3200 2000;" xml:space="preserve">
<rect style="fill:#FFFFFF;" width="3200" height="2000"/>
<g>
	<path style="fill:#EBF3FA;" d="M228.726,1568.899c0,0-312.879-545.748,67.933-961.912
		c234.334-256.088,587.602-93.43,989.208-132.487c401.605-39.058,589.271-87.055,829.485,4.957
		c240.213,92.012,559.709-5.985,748.673,292.257c353.273,557.57,165.526,790.573,165.526,790.573L228.726,1568.899z"/>
	<g>
		<path style="fill:#F99746;" d="M1880.52,1159.811c0,0-4.306-43.561-14.809-82.529c-2.147-7.971,3.813-15.814,12.068-15.814
			h110.672l18.078,98.344C2006.529,1159.811,1878.193,1163.718,1880.52,1159.811z"/>
		<path style="fill:#ED7D2B;" d="M1891.064,1159.811c0,0-4.307-43.561-14.809-82.529c-2.148-7.971,3.813-15.814,12.068-15.814
			h110.671l18.078,98.344C2017.073,1159.811,1888.738,1163.718,1891.064,1159.811z"/>
	</g>
	<g>
		<path style="fill:#163560;" d="M2051.841,864.243c0,0-30.775-4.871-47.906,21.345c-17.568,26.886-35.128,62.343-23.644,72.791
			c9.906,9.012,8.602,16.223,0,20.625c-36.646,18.756-16.2,36.292-3.153,42.737c13.047,6.446,124.533,20.479,129.182,13.132
			c23.481-37.113-15.097-53.35-8.602-64.894C2103.172,960.285,2137.558,873.881,2051.841,864.243z"/>
		<path style="fill:#FFB27D;" d="M2092.915,1048.266c-7.966,6.15-13.007,28.353-25.853,32.016
			c-48.151,13.744-73.998-43.435-82.454-71.346c6.451-4.142,12.661-5.299,16.25-5.914c3.5-0.595,7.19-1.06,10.25-1.368
			c5.257-4.47,12.535-22.037,12.979-48.76l2.323,0.498l38.938,8.551c0,0-1.137,12.297-1.41,23.879
			c-0.206,9.063-0.499,11.229,0.199,12.308c3.03,0.497,6.598,8.242,6.598,8.242s0.003,0.013,0.021,0.035
			C2071.316,1007.225,2083.392,1024.979,2092.915,1048.266z"/>
		<path style="fill:#ED985F;" d="M2065.352,961.949c0,0-1.144,12.287-1.409,23.878c-21.867-1.068-33.021-21.267-37.531-32.428
			L2065.352,961.949z"/>
		<g>
			<path style="fill:#D2E3FC;" d="M2263.396,1163.889c0,0-22.897,0.841-47.762,0.926c-2.941,0.016-5.92,0.016-8.883,0
				c-20.25-0.085-40.152-0.795-48.619-2.979c-8.272-2.13-40.098-23.699-65.564-49.83c-0.008-0.008-0.008-0.016-0.008-0.016
				c-1.976,4.708-3.466,8.304-3.504,8.59c-0.749,5.865-1.999,11.745-3.512,17.387c-5.772,21.531-15.396,39.604-15.728,40.229
				l-13.636-0.023l-106.467-0.154c0,0,20.11-30.977,14.709-110.333c-0.139-2.006,18.536-66.036,18.536-66.036
				s14.509-2.539,31.278-3.889c1.582,1.443,4.839,43.564,25.814,46.002c3.41,0.394,25.297,33.824,25.297,33.824l6.629-34.148
				l-7.841-45.308c10.063,2.947,15.581,4.005,23.946,7.347c5.695,2.284,10.411,6.483,13.352,11.861
				c14.654,26.778,62.216,113.157,67.07,115.172c4.545,1.883,21.678,5.31,39.805,8.62h0.016c24.255,4.43,50.293,8.636,50.293,8.636
				L2263.396,1163.889z"/>
			<path style="fill:#D2E3FC;" d="M2077.419,1178.204l-7.625,0.023c0,0,0.016-0.023,0.023-0.031L2077.419,1178.204z"/>
		</g>
		<path style="fill:#FFB27D;" d="M2071.841,973.654c0,0-51.775-1.015-50.647-33.249c1.129-32.233-4.794-54.073,28.312-54.788
			c33.105-0.715,39.095,11.81,41.335,22.661C2093.08,919.128,2085.339,973.088,2071.841,973.654z"/>
		<path style="fill:#B7D3F3;" d="M2215.635,1164.814c-2.941,0.016-5.92,0.016-8.883,0c-20.25-0.085-40.152-0.795-48.619-2.979
			c-8.272-2.13-40.098-23.699-65.564-49.83c-0.008-0.008-0.008-0.016-0.008-0.016s5.371-20.566,7.686-24.008
			c2.315-3.45,11.453,30.012,32.799,43.625s54.754,23.151,70.975,19.293C2214.947,1148.3,2216.066,1158.124,2215.635,1164.814z"/>
		<path style="fill:#FFFFFF;" d="M2061.672,955.713c0,0,0.33,3.86,8.821,4.469c0,0,7.128,0.513,7.425-3.637
			C2077.918,956.545,2071.429,952.649,2061.672,955.713z"/>
		<path style="fill:#FFB27D;" d="M2148.842,1139.36c0,0,20.658-3.502,22.798-2.626c3.474,1.423,15.427,7.447,17.405,9.363
			c1.979,1.915,7.479,9.871,7.479,9.871s-1.923,0.775-2.907,0.063s-8.555-7.239-8.555-7.239l8.126,9.914
			c0,0-2.421,0.158-3.491-0.798c-1.07-0.955-8.306-6.918-8.306-6.918l-2.267-0.196c0,0,2.457,1.579,3.862,3.099
			s2.411,3.211,2.411,3.211s-2.023-0.12-2.675-0.352c-0.65-0.23-7.047-4.743-7.047-4.743l3.556,3.921c0,0-2.098,0.126-2.833-0.266
			c-0.735-0.393-5.742-4.119-6.549-4.021c-0.806,0.099-6.637,0.496-9.273-0.563c-2.638-1.059-10.795-3.25-10.795-3.25
			L2148.842,1139.36z"/>
		<path style="fill:#B7D3F3;" d="M2018.803,987.494c0,0-16.354,8.416-19.739,11.826c0,0,15.522,39.681,37.901,58.203l5.982-4.244
			v9.647l22.404,14.661C2065.352,1077.587,2017.655,999.497,2018.803,987.494z"/>
		<path style="fill:#B7D3F3;" d="M2085.545,1137.967c-5.772,21.531-15.396,39.604-15.728,40.229l7.602,0.008l-7.625,0.023h-70.73
			c0,0,8.206-0.016,8.19-0.055c-0.192-0.718,11.962-33.667-8.19-47.172c-20.188-13.529-27.509-46.793-27.509-46.793l64.237-15.692
			c0,0,26.47,38.623,34.002,45.985c5.784,5.653,19.263,6.079,19.263,6.079L2085.545,1137.967z"/>
		<path style="fill:#B7D3F3;" d="M2063.521,997.76c0,0,7.45,54.36,1.83,79.827c0,0,9.171-16.849,10.457-19.937l-1.543-9.26
			l5.916,2.058c0,0-4.691-43.401-9.94-50.591c-2.323-3.183-6.479-7.699-6.479-7.699L2063.521,997.76z"/>
		<path style="fill:#FFB27D;" d="M2263.396,1163.889c0,0-28.646,1.058-56.645,0.926c-6.945-10.772,1.559-23.684,1.559-23.684h0.016
			c24.255,4.43,50.293,8.636,50.293,8.636L2263.396,1163.889z"/>
		<path style="fill:#FFB27D;" d="M2154.135,1148.413c0,0-52.188,7.489-80.527,9.334l4.999-27.545
			c19.034,3.108,70.237,9.157,70.237,9.157L2154.135,1148.413z"/>
		<path style="fill:#D2E3FC;" d="M1999.063,999.32c0,0-31.167,0.709-40.813,11.128c-9.646,10.418,9.571,69.302,9.571,69.302
			s58.095,71.151,87.156,76.168c0,0,12.702,1.735,18.63,1.83c0,0,6.574-13.772,4.999-27.545c0,0-12.444-3.482-12.959-5.025
			C2065.133,1123.633,1999.063,999.32,1999.063,999.32z"/>
		<path style="fill:#163560;" d="M2082.292,888.972c0,0-12.497,45.838-67.442,44.598c0,0-5.674-43.264,23.912-50.242
			C2068.348,876.35,2082.292,888.972,2082.292,888.972z"/>
		<path style="fill:#163560;" d="M2090.886,921.013c0,0,3.048-13.728-16.956-24.892c0,0,14.189-16.05,20.236-6.746
			C2100.214,898.68,2090.886,921.013,2090.886,921.013z"/>
		<path style="fill:#ED7D2B;" d="M2020.542,981.523c0,0-9.834,5.162-11.95,11.517c0,0,9.281,24.266,40.915,32.64
			C2049.507,1025.68,2026.7,999.006,2020.542,981.523z"/>
		<path style="fill:#ED7D2B;" d="M2063.898,987.494c0,0,1.038,30.432-14.392,38.186c0,0,18.957-2.21,21.251-19.273
			C2072.117,996.292,2068.791,989.748,2063.898,987.494z"/>
		<path style="fill:#ED7D2B;" d="M2051.107,1023.151c0,0-6.991,21.167-5.227,26.617c1.766,5.451,14.251,30.008,14.404,37.966
			c0,0,8.993-12.511,8.761-27.63S2051.107,1023.151,2051.107,1023.151z"/>
		<path style="fill:#F99746;" d="M2052.578,1023.652c0,0-1.658,14.588,0,18.774s10.348,9.304,18.486,10.234
			c0,0,2.245-6.203-1.321-10.7C2066.177,1037.465,2053.606,1029.682,2052.578,1023.652z"/>
		<path style="fill:#ED7D2B;" d="M2045.881,1023.818c0,0,0.758-4.031,2.773-4.962c2.016-0.931,6.92,1.767,7.545,3.257
			c0.624,1.489-0.412,4.807-3.203,5.427S2045.347,1025.694,2045.881,1023.818z"/>
	</g>
	<g>
		<g>
			<polygon style="fill:#395A8E;" points="2348.302,1127.54 2157.682,1127.54 2176.369,991.17 2366.99,991.17 			"/>
			<polygon style="fill:#233862;" points="2352.791,1127.54 2162.17,1127.54 2180.858,991.17 2371.479,991.17 			"/>
		</g>
		<g>
			<polygon style="fill:#395A8E;" points="2289.511,1050.135 2273.377,1159.811 2235.166,1159.811 2235.882,1154.936 
				2251.299,1050.135 			"/>
			<polygon style="fill:#172A49;" points="2276.165,1159.813 2237.955,1159.813 2254.088,1050.132 2292.298,1050.132 			"/>
			<path style="fill:#172A49;" d="M2241.444,1159.813h63.321l0,0c0-2.695-2.186-4.88-4.881-4.88h-57.723L2241.444,1159.813z"/>
			<path style="fill:#395A8E;" d="M2265.125,1159.811L2265.125,1159.811h-29.959l0.716-4.875h24.367
				C2262.941,1154.936,2265.125,1157.118,2265.125,1159.811z"/>
		</g>
	</g>
	<g>
		<path style="fill:#F99746;" d="M349.22,1159.811c0,0-4.306-43.561-14.808-82.529c-2.148-7.971,3.813-15.814,12.068-15.814h110.671
			l18.078,98.344C475.229,1159.811,346.894,1163.718,349.22,1159.811z"/>
		<path style="fill:#ED7D2B;" d="M359.765,1159.811c0,0-4.306-43.561-14.809-82.529c-2.148-7.971,3.813-15.814,12.068-15.814
			h110.671l18.078,98.344C485.774,1159.811,357.439,1163.718,359.765,1159.811z"/>
	</g>
	<g>
		<path style="fill:#F99746;" d="M1143.941,1159.811c0,0-4.306-43.561-14.808-82.529c-2.148-7.971,3.813-15.814,12.068-15.814
			h110.672l18.078,98.344C1269.951,1159.811,1141.615,1163.718,1143.941,1159.811z"/>
		<path style="fill:#ED7D2B;" d="M1154.486,1159.811c0,0-4.306-43.561-14.808-82.529c-2.148-7.971,3.813-15.814,12.068-15.814
			h110.671l18.079,98.344C1280.496,1159.811,1152.16,1163.718,1154.486,1159.811z"/>
	</g>
	<g>
		<path style="fill:#8E342E;" d="M519.922,872.358c0,0-36.54-20.975-62.155-1.126c-25.615,19.849-17.833,31.744-38.304,67.609
			c-15.049,26.365,8.512,38.353,47.599,44.917c39.086,6.565,66.379,23.51,76.303,8.399
			C553.288,977.048,550.807,890.771,519.922,872.358z"/>
		<path style="fill:#FFB27D;" d="M527.769,1048.266c-7.966,6.15-13.007,28.353-25.853,32.016
			c-48.151,13.744-73.999-43.435-82.454-71.346c6.451-4.142,12.66-5.299,16.249-5.914c3.501-0.595,7.19-1.06,10.25-1.368
			c5.257-4.47,12.535-22.037,12.979-48.76l2.323,0.498l38.938,8.551c0,0-1.136,12.297-1.41,23.879
			c-0.206,9.063-0.499,11.229,0.2,12.308c3.03,0.497,6.598,8.242,6.598,8.242s0.003,0.013,0.021,0.035
			C506.17,1007.225,518.246,1024.979,527.769,1048.266z"/>
		<path style="fill:#ED985F;" d="M500.205,961.949c0,0-1.144,12.287-1.409,23.878c-21.867-1.068-33.021-21.267-37.531-32.428
			L500.205,961.949z"/>
		<g>
			<path style="fill:#D2E3FC;" d="M650.488,1164.814c-2.94,0.016-5.919,0.016-8.883,0c-20.25-0.085-40.153-0.795-48.619-2.979
				c-8.273-2.13-40.099-23.699-65.565-49.83c-0.008-0.008-0.008-0.016-0.008-0.016c-1.976,4.708-3.465,8.304-3.503,8.59
				c-0.749,5.865-1.999,11.745-3.511,17.387c-5.772,21.531-15.396,39.604-15.727,40.229l-13.637-0.023l-106.466-0.154
				c0,0,20.111-30.977,14.709-110.333c-0.139-2.006,18.537-66.036,18.537-66.036s14.508-2.539,31.278-3.889
				c1.582,1.443,4.839,43.564,25.814,46.002c3.411,0.394,25.297,33.824,25.297,33.824l6.629-34.148l-7.841-45.308
				c10.064,2.947,15.581,4.005,23.947,7.347c5.695,2.284,10.411,6.483,13.351,11.861c14.655,26.778,62.216,113.157,67.07,115.172
				c4.545,1.883,21.678,5.31,39.805,8.62h0.016C656.389,1143.543,675.352,1164.729,650.488,1164.814z"/>
			<path style="fill:#D2E3FC;" d="M512.272,1178.204l-7.625,0.023c0,0,0.016-0.023,0.023-0.031L512.272,1178.204z"/>
		</g>
		<path style="fill:#FFB27D;" d="M506.695,973.654c0,0-51.776-1.015-50.647-33.249c1.128-32.233-4.794-54.073,28.311-54.788
			c33.105-0.715,39.094,11.81,41.334,22.661C527.933,919.128,520.192,973.088,506.695,973.654z"/>
		<path style="fill:#B7D3F3;" d="M650.488,1164.814c-2.94,0.016-5.919,0.016-8.883,0c-20.25-0.085-40.153-0.795-48.619-2.979
			c-8.273-2.13-40.099-23.699-65.565-49.83c-0.008-0.008-0.008-0.016-0.008-0.016s5.372-20.566,7.687-24.008
			c2.315-3.45,11.453,30.012,32.798,43.625s54.754,23.151,70.975,19.293C649.801,1148.3,650.92,1158.124,650.488,1164.814z"/>
		<path style="fill:#FFFFFF;" d="M496.526,955.713c0,0,0.33,3.86,8.821,4.469c0,0,7.128,0.513,7.425-3.637
			C512.771,956.545,506.283,952.649,496.526,955.713z"/>
		<path style="fill:#FFB27D;" d="M589.243,1145.223c0,0,22.203-1.277,24.361-0.114c3.504,1.889,15.43,9.569,17.3,11.8
			c1.87,2.231,6.763,11.187,6.763,11.187s-2.118,0.589-3.076-0.271c-0.957-0.859-8.2-8.558-8.2-8.558l7.441,11.305
			c0,0-2.573-0.113-3.593-1.236c-1.02-1.123-7.975-8.193-7.975-8.193l-2.37-0.468c0,0,2.413,1.935,3.722,3.687
			c1.31,1.751,2.177,3.636,2.177,3.636s-2.121-0.359-2.782-0.676c-0.661-0.316-6.895-5.773-6.895-5.773l3.305,4.51
			c0,0-2.229-0.11-2.96-0.605c-0.731-0.494-5.589-4.969-6.451-4.959c-0.862,0.01-7.062-0.248-9.724-1.66
			c-2.663-1.411-11.021-4.646-11.021-4.646L589.243,1145.223z"/>
		<path style="fill:#B7D3F3;" d="M453.657,987.494c0,0-16.355,8.416-19.74,11.826c0,0,15.522,39.681,37.902,58.203l5.982-4.244
			v9.647l22.405,14.661C500.205,1077.587,452.509,999.497,453.657,987.494z"/>
		<path style="fill:#B7D3F3;" d="M520.399,1137.967c-5.772,21.531-15.396,39.604-15.727,40.229l7.601,0.008l-7.625,0.023h-70.731
			c0,0,8.206-0.016,8.191-0.055c-0.193-0.718,11.961-33.667-8.191-47.172c-20.189-13.529-27.509-46.793-27.509-46.793l64.238-15.692
			c0,0,26.469,38.623,34.002,45.985c5.784,5.653,19.262,6.079,19.262,6.079L520.399,1137.967z"/>
		<path style="fill:#B7D3F3;" d="M498.375,997.76c0,0,7.451,54.36,1.83,79.827c0,0,9.171-16.849,10.457-19.937l-1.543-9.26
			l5.916,2.058c0,0-4.691-43.401-9.94-50.591c-2.324-3.183-6.478-7.699-6.478-7.699L498.375,997.76z"/>
		<path style="fill:#FFB27D;" d="M589.267,1154.188c0,0-54.499,4.761-84.619,3.418v-29.595
			c19.733,5.448,84.596,17.209,84.596,17.209L589.267,1154.188z"/>
		<path style="fill:#D2E3FC;" d="M433.917,999.32c0,0-31.167,0.709-40.814,11.128c-9.646,10.418,9.571,69.302,9.571,69.302
			s58.095,71.151,87.157,76.168c0,0,12.701,1.735,18.63,1.83c0,0-5.813-16.924,4.999-27.545c0,0-12.444-3.482-12.959-5.025
			C499.987,1123.633,433.917,999.32,433.917,999.32z"/>
		<path style="fill:#8E342E;" d="M517.146,888.972c0,0-12.498,45.838-67.443,44.598c0,0-5.674-43.264,23.912-50.242
			C503.201,876.35,517.146,888.972,517.146,888.972z"/>
		<path style="fill:#8E342E;" d="M525.739,921.013c0,0,3.048-13.728-16.956-24.892c0,0,14.189-16.05,20.236-6.746
			C535.068,898.68,525.739,921.013,525.739,921.013z"/>
		<path style="fill:#ED7D2B;" d="M455.396,981.523c0,0-9.834,5.162-11.95,11.517c0,0,9.281,24.266,40.915,32.64
			C484.361,1025.68,461.554,999.006,455.396,981.523z"/>
		<path style="fill:#ED7D2B;" d="M498.752,987.494c0,0,1.038,30.432-14.391,38.186c0,0,18.957-2.21,21.251-19.273
			C506.971,996.292,503.645,989.748,498.752,987.494z"/>
		<path style="fill:#ED7D2B;" d="M485.961,1023.151c0,0-6.991,21.167-5.226,26.617c1.765,5.451,14.25,30.008,14.404,37.966
			c0,0,8.993-12.511,8.76-27.63C503.667,1044.985,485.961,1023.151,485.961,1023.151z"/>
		<path style="fill:#F99746;" d="M487.432,1023.652c0,0-1.658,14.588,0,18.774c1.659,4.187,10.348,9.304,18.486,10.234
			c0,0,2.246-6.203-1.32-10.7C501.03,1037.465,488.46,1029.682,487.432,1023.652z"/>
		<path style="fill:#ED7D2B;" d="M480.735,1023.818c0,0,0.757-4.031,2.773-4.962c2.016-0.931,6.92,1.767,7.545,3.257
			c0.624,1.489-0.412,4.807-3.203,5.427C485.059,1028.16,480.2,1025.694,480.735,1023.818z"/>
	</g>
	<g>
		<path style="fill:#233862;" d="M1362.191,878.875c-6.435-5.122-18.063-8.512-22.235-8.377c-3.011,0.097-6.019-0.19-9.004-0.591
			c-35.723-4.801-57.224,47.108-58.488,62.837c-2.331,28.992-17.667,33.412-39.255,51.568
			c-43.285,36.405-30.592,78.709-6.923,94.428c14.201,9.432,39.232-0.001,39.232-0.001c0.354,0.247,68.456-38.07,102.026-56.555
			C1417.87,1015.03,1382.935,895.386,1362.191,878.875z"/>
		<path style="fill:#D2E3FC;" d="M1488.691,1147.219c0,0-46.951-11.869-58.926-22.252c-10.153-8.803-31.625-90.637-41.868-111.416
			c-6.905-14.007-37.69-23.367-46.137-25.076c-0.238-0.267,7.2,76.051-4.105,67.06c-34.657-27.563-29.063-46.739-40.72-71.202
			c-0.7-1.468-16.948,22.196-31.917,50.568c-16.505,31.32-11.977,37.953-7.325,57.449c0.845,3.559,1.564,6.826,2.146,9.845
			c5.58,28.386,0.858,34.146,7.546,52.687c1.938,5.358,52.908,10.136,81.903,8.211c9.222-0.609,16.228-1.897,18.72-4.058
			c8.897-7.718,9.383,5.82,10.244-50.428c2.257,5.576,17.353,45.254,26.623,49.545c13.026,6.028,87.535,1.658,87.535,1.658
			L1488.691,1147.219z"/>
		<path style="fill:#FFB27D;" d="M1343.568,1008.596c0.147,0.096,3.488,43.567-4.13,44.381
			c-11.396,1.219-46.116-67.555-45.961-67.564c4.769-0.22,10.004-4.389,14.036-31.746l2.031,0.729l34.142,12.285
			c0,0-2.474,10.956-4.074,21.386C1338.266,996.823,1341.703,1007.357,1343.568,1008.596z"/>
		<path style="fill:#ED975D;" d="M1343.687,966.68c0,0-2.474,10.956-4.074,21.386c-19.611-3.53-27.307-23.068-30.068-33.671
			L1343.687,966.68z"/>
		<path style="fill:#FFB27D;" d="M1348.771,977.554c0,0-46.713-6.27-42.361-35.3c4.353-29.03,1.254-49.391,31.264-46.616
			c30.009,2.776,34.13,14.72,35.034,24.763C1373.612,930.444,1361.034,978.437,1348.771,977.554z"/>
		<path style="fill:#233862;" d="M1371.005,904.489c0,0-29.903,25.77-50.244,27.847c-20.34,2.078-28.041-4.452-28.041-4.452
			s11.989-9.954,19.204-26.019c2.127-4.735,6.619-7.984,11.791-8.431C1338.24,892.181,1365.772,891.609,1371.005,904.489z"/>
		<path style="fill:#233862;" d="M1352.313,902.181c0,0,10.003,9.673,13.154,16.847c3.04,6.923,3.952,23.482,1.531,30.058
			c0,0,15.586-30.307,6.762-45.032C1364.402,888.44,1352.313,902.181,1352.313,902.181z"/>
		<path style="fill:#B7D3F3;" d="M1349.29,1163.093c-28.995,1.925-79.964-2.853-81.902-8.211
			c-6.688-18.541-1.966-24.301-7.546-52.687l13.985-39.38c0,0-2.312,43.853,10.62,55.387c12.919,11.534,52.949,22.265,59.236,31.902
			C1346.714,1154.729,1348.708,1159.368,1349.29,1163.093z"/>
		<path style="fill:#FFB27D;" d="M1316.069,1144.648c0,0,28.605-6.369,33.221-3.83c4.616,2.538,15.896,11.783,17.308,15
			s-10.275-2.441-14.077-3.461c-2.462-0.66-8.943,1.592-12.151,2.66c-13.5,4.501-21.773,2.186-21.773,2.186L1316.069,1144.648z"/>
		<path style="fill:#D2E3FC;" d="M1296.912,984.313c0,0-38.409,2.366-51.706,20.911c-18.717,26.105-55.847,137.36-34.567,152.198
			c23.964,16.71,109.066,4.371,109.066,4.371s2.832-13.237-1.108-19.64c-3.94-6.403-67.972-16.747-70.927-19.702
			c-2.956-2.956,36.941-57.629,36.941-66.495S1296.912,984.313,1296.912,984.313z"/>
		<path style="fill:#FFB27D;" d="M1350.674,1148.78c0,0,5.994,7.73,7.958,8.653c1.965,0.924,3.234,0.692,3.234,0.692l-4.039-7.269
			L1350.674,1148.78z"/>
		<path style="fill:#FFB27D;" d="M1349.29,1140.818l17.426,8.462c0,0-0.741,1.213-2.887,1.115c-2.146-0.099-7.558-2.077-7.558-2.077
			L1349.29,1140.818z"/>
		<path style="fill:#B7D3F3;" d="M1298.487,982.517c0,0-5.409-0.469-16.344,3.895c0,0,12.421,44.003,33.233,61.227l5.563-3.946
			v8.972l20.835,13.634C1341.774,1066.298,1297.42,993.679,1298.487,982.517z"/>
		<path style="fill:#B7D3F3;" d="M1340.072,992.064c0,0,6.929,50.551,1.702,74.234c0,0,8.528-15.669,9.725-18.539l-1.436-8.612
			l5.502,1.914c0,0-4.363-40.361-9.244-47.046c-2.161-2.96-6.025-7.159-6.025-7.159L1340.072,992.064z"/>
		<path style="fill:#ED7D2B;" d="M1303.553,972.712c0,0-9.036,4.682-11.003,10.592c0,0,5.073,26.936,34.491,34.723
			C1327.04,1018.027,1309.279,988.97,1303.553,972.712z"/>
		<path style="fill:#ED7D2B;" d="M1339.895,986.274c0,0-0.767,3.99-1.365,10.35c-0.72,7.653-3.337,17.305-11.49,21.403
			c0,0,17.629-2.055,19.762-17.923C1348.066,990.698,1344.445,988.371,1339.895,986.274z"/>
		<path style="fill:#ED7D2B;" d="M1328.528,1015.677c0,0-6.501,19.684-4.86,24.752c1.642,5.069,13.252,27.905,13.396,35.306
			c0,0,8.362-11.635,8.146-25.694C1344.993,1035.98,1328.528,1015.677,1328.528,1015.677z"/>
		<path style="fill:#F99746;" d="M1329.896,1016.143c0,0-1.542,13.565,0,17.459c1.542,3.893,9.623,8.651,17.191,9.517
			c0,0,2.088-5.768-1.229-9.95C1342.542,1028.986,1330.853,1021.749,1329.896,1016.143z"/>
		<path style="fill:#ED7D2B;" d="M1323.668,1016.297c0,0,0.704-3.749,2.579-4.614c1.875-0.865,6.436,1.643,7.016,3.028
			c0.581,1.385-0.383,4.47-2.979,5.047C1327.689,1020.334,1323.171,1018.041,1323.668,1016.297z"/>
		<path style="fill:#233862;" d="M1341.98,1089.689c0-0.942,0.764-1.706,1.706-1.706c0.942,0,1.706,0.764,1.706,1.706
			c0,0.941-0.764,1.705-1.706,1.705C1342.744,1091.395,1341.98,1090.631,1341.98,1089.689z"/>
		<path style="fill:#233862;" d="M1336.661,1116.826c0-0.942,0.764-1.706,1.706-1.706s1.706,0.764,1.706,1.706
			c0,0.941-0.764,1.705-1.706,1.705S1336.661,1117.768,1336.661,1116.826z"/>
	</g>
	<rect x="323.239" y="1168.929" style="fill:#77A4E5;" width="2397.527" height="394.175"/>
	<rect x="287.833" y="1159.813" style="fill:#274672;" width="2460.943" height="31.444"/>
	<rect x="323.239" y="1291.373" style="fill:#B7D3F3;" width="2397.527" height="151.132"/>
	<rect x="1296.339" y="1153.341" style="fill:#233862;" width="144.448" height="6.473"/>
	<rect x="2081.911" y="1153.341" style="fill:#233862;" width="144.448" height="6.473"/>
	<rect x="531.06" y="1153.341" style="fill:#233862;" width="101.16" height="6.473"/>
	<g>
		<g>
			<polygon style="fill:#395A8E;" points="1584.272,1127.54 1393.651,1127.54 1412.339,991.17 1602.96,991.17 			"/>
			<polygon style="fill:#233862;" points="1588.761,1127.54 1398.14,1127.54 1416.828,991.17 1607.449,991.17 			"/>
		</g>
		<g>
			<polygon style="fill:#395A8E;" points="1525.48,1050.135 1509.348,1159.811 1471.136,1159.811 1471.853,1154.936 
				1487.269,1050.135 			"/>
			<polygon style="fill:#172A49;" points="1512.135,1159.813 1473.925,1159.813 1490.059,1050.132 1528.269,1050.132 			"/>
			<path style="fill:#172A49;" d="M1477.415,1159.813h63.321l0,0c0-2.695-2.186-4.88-4.881-4.88h-57.722L1477.415,1159.813z"/>
			<path style="fill:#395A8E;" d="M1501.095,1159.811L1501.095,1159.811h-29.959l0.717-4.875h24.367
				C1498.912,1154.936,1501.095,1157.118,1501.095,1159.811z"/>
		</g>
	</g>
	<g>
		<path style="fill:#C0D8FB;" d="M2620.13,788.469h-99.533c-4.569,0-8.308-3.738-8.308-8.308v-96.067
			c0-4.569,3.738-8.308,8.308-8.308h99.533c4.569,0,8.308,3.739,8.308,8.308v96.067
			C2628.438,784.731,2624.699,788.469,2620.13,788.469z"/>
		<path style="fill:#DFEBFD;" d="M2615.818,783.588h-90.91c-4.173,0-7.588-3.415-7.588-7.588v-87.744
			c0-4.173,3.415-7.588,7.588-7.588h90.91c4.173,0,7.588,3.414,7.588,7.588V776C2623.406,780.173,2619.991,783.588,2615.818,783.588
			z"/>
		<g>
			<g>
				<path style="fill:#B7D3F3;" d="M2567.957,690.953c0-1.329,1.078-2.406,2.406-2.406c1.329,0,2.406,1.078,2.406,2.406
					c0,1.329-1.077,2.406-2.406,2.406C2569.035,693.358,2567.957,692.281,2567.957,690.953z"/>
				<path style="fill:#B7D3F3;" d="M2587.371,694.353c0.646-1.161,2.111-1.58,3.271-0.934c1.162,0.646,1.58,2.11,0.936,3.272
					c-0.646,1.162-2.111,1.58-3.272,0.935S2586.726,695.515,2587.371,694.353z"/>
				<path style="fill:#B7D3F3;" d="M2604.004,707.567c1.117-0.72,2.605-0.399,3.326,0.717s0.399,2.606-0.717,3.326
					c-1.117,0.72-2.606,0.399-3.326-0.717C2602.566,709.777,2602.888,708.288,2604.004,707.567z"/>
				<path style="fill:#B7D3F3;" d="M2612.242,728.019c1.329,0,2.406,1.077,2.406,2.406c0,1.329-1.077,2.406-2.406,2.406
					c-1.328,0-2.406-1.077-2.406-2.406C2609.836,729.097,2610.914,728.019,2612.242,728.019z"/>
				<path style="fill:#B7D3F3;" d="M2608.036,751.755c0.939,0.939,0.939,2.463,0,3.402c-0.939,0.94-2.463,0.94-3.402,0
					c-0.94-0.939-0.94-2.463,0-3.402C2605.573,750.815,2607.097,750.815,2608.036,751.755z"/>
				<path style="fill:#B7D3F3;" d="M2592.928,766.903c0.939,0.94,0.939,2.463,0,3.403c-0.939,0.939-2.463,0.939-3.402,0
					c-0.939-0.94-0.939-2.463,0-3.403C2590.465,765.963,2591.988,765.963,2592.928,766.903z"/>
				<path style="fill:#B7D3F3;" d="M2567.957,774.711c0-1.329,1.078-2.406,2.406-2.406c1.329,0,2.406,1.077,2.406,2.406
					c0,1.329-1.077,2.406-2.406,2.406C2569.035,777.117,2567.957,776.04,2567.957,774.711z"/>
			</g>
			<g>
				<path style="fill:#B7D3F3;" d="M2553.279,694.353c-0.646-1.161-2.111-1.58-3.272-0.934c-1.161,0.646-1.579,2.11-0.935,3.272
					c0.646,1.162,2.111,1.58,3.271,0.935C2553.506,696.979,2553.924,695.515,2553.279,694.353z"/>
				<path style="fill:#B7D3F3;" d="M2536.646,707.567c-1.117-0.72-2.605-0.399-3.326,0.717s-0.399,2.606,0.717,3.326
					c1.117,0.72,2.606,0.399,3.326-0.717C2538.084,709.777,2537.763,708.288,2536.646,707.567z"/>
				<path style="fill:#B7D3F3;" d="M2528.408,728.019c-1.329,0-2.406,1.077-2.406,2.406c0,1.329,1.077,2.406,2.406,2.406
					c1.328,0,2.405-1.077,2.405-2.406C2530.813,729.097,2529.736,728.019,2528.408,728.019z"/>
				<path style="fill:#B7D3F3;" d="M2532.614,751.755c-0.939,0.939-0.939,2.463,0,3.402c0.939,0.94,2.463,0.94,3.402,0
					c0.939-0.939,0.939-2.463,0-3.402C2535.077,750.815,2533.554,750.815,2532.614,751.755z"/>
				<path style="fill:#B7D3F3;" d="M2547.723,766.903c-0.939,0.94-0.939,2.463,0,3.403c0.939,0.939,2.463,0.939,3.402,0
					c0.939-0.94,0.939-2.463,0-3.403C2550.186,765.963,2548.662,765.963,2547.723,766.903z"/>
			</g>
		</g>
		<g>
			<path style="fill:#B7D3F3;" d="M2569.715,730.426c0-1.329,1.077-2.406,2.406-2.406c1.328,0,2.406,1.077,2.406,2.406
				c0,1.329-1.078,2.406-2.406,2.406C2570.792,732.831,2569.715,731.754,2569.715,730.426z"/>
			<g>
				<rect x="2571.792" y="700.369" style="fill:#B7D3F3;" width="0.657" height="30.057"/>
			</g>
			<g>
				
					<rect x="2569.656" y="723.143" transform="matrix(0.7866 -0.6174 0.6174 0.7866 103.3423 1747.3026)" style="fill:#B7D3F3;" width="20.258" height="1.971"/>
			</g>
		</g>
	</g>
	<g>
		<g>
			<g>
				<path style="fill:#172A49;" d="M1748.058,1562.387h0.345c2.029,0,3.661-1.681,3.615-3.721l-5.482-238.983l-16.147-1.895
					l13.771,240.895C1744.276,1560.762,1745.987,1562.387,1748.058,1562.387z"/>
			</g>
			<g>
				<path style="fill:#172A49;" d="M1842.154,1562.387h0.345c2.03,0,3.662-1.681,3.615-3.721l-5.482-238.983l-16.147-1.895
					l13.77,240.895C1838.373,1560.762,1840.084,1562.387,1842.154,1562.387z"/>
			</g>
			<g>
				<path style="fill:#172A49;" d="M1582.5,1562.387h-0.344c-2.03,0-3.662-1.681-3.615-3.721l5.482-238.983l16.147-1.895
					l-13.77,240.895C1586.282,1560.762,1584.571,1562.387,1582.5,1562.387z"/>
			</g>
			<path style="fill:#172A49;" d="M1852.854,1304.861v-163.763c0-28.815-23.223-52.175-51.871-52.175h-117.3
				c-28.647,0-51.871,23.359-51.871,52.175v170.021L1852.854,1304.861z"/>
			<path style="fill:#172A49;" d="M1610.795,1330.715h226.438c8.627,0,15.62-6.994,15.62-15.62v-10.233h-242.059V1330.715z"/>
			<path style="fill:#172A49;" d="M1583.688,1330.715h171.277c6.379,0,11.551-5.172,11.551-11.551v-2.753
				c0-6.379-5.172-11.55-11.551-11.55h-171.277c-6.379,0-11.55,5.171-11.55,11.55v2.753
				C1572.138,1325.543,1577.309,1330.715,1583.688,1330.715z"/>
		</g>
		<path style="fill:#F9DDBF;" d="M1675.066,1040.351c0,0,10.541-3.562,12.675,18.099c1.62,16.448-9.791,144.134-18.375,154.28
			c-24.155,28.553-54.431,16.488-66.291,20.821l-11.187-10.051c0,0,39.334-29.031,42.328-38.503
			C1645.739,1148.535,1637.873,1054.122,1675.066,1040.351z"/>
		<path style="fill:#163560;" d="M1682.848,924.292c0,0-0.665-23.417,30.22-28.012c30.884-4.595,39.417,2.626,44.668,10.502
			c5.251,7.877,15.097,40.04,14.112,52.839c-0.984,12.8-36.211,28.626-35.637,36.095S1682.848,924.292,1682.848,924.292z"/>
		<path style="fill:#EAC3A0;" d="M1660.791,1148.535c0,0,0.171,23.566,0.096,33.195c-0.088,11.37-22.563,41.77-22.563,41.77
			l30.578-5.273c0,0,19.032-23.099,18.995-24.597C1687.858,1192.131,1660.791,1148.535,1660.791,1148.535z"/>
		<path style="fill:#FFB27D;" d="M1539.602,1542.182c1.001,7.914-9.79,10.243-22.346,11.344c-12.555,1.1-8.661,3.582-25.785,7.393
			c-17.124,3.812-24.202-0.735-25.534-3.061c-1.186-2.062,6.711-5.646,15.12-9.677c1.059-0.503,2.118-1.021,3.177-1.54
			c9.46-4.654,14.542-13.627,21.747-22.037c6.825-7.966,12.688-32.883,12.688-32.883l23.244-5.953c0,0-5.789,22.445-7.736,32.009
			c-1.146,5.624,1.058,11.785,2.985,16.464C1538.201,1536.787,1539.252,1539.395,1539.602,1542.182z"/>
		<path style="fill:#233862;" d="M1517.256,1553.525c-12.555,1.1-8.661,3.582-25.785,7.393c-17.124,3.812-24.202-0.735-25.534-3.061
			c-1.186-2.062,6.711-5.646,15.12-9.677l0.139,0.144c0,0,12.269,3.742,26.12-0.643c11.291-3.57,22.07-10.911,29.846-13.441
			c1.04,2.547,2.09,5.154,2.44,7.941C1540.603,1550.096,1529.812,1552.425,1517.256,1553.525z"/>
		<path style="fill:#233862;" d="M1713.624,1219.549c0,0-155.389,16.12-181.001,39.907c-25.613,23.788-21.05,245.395-21.05,245.395
			c3.988,4.137,6.929,4.041,13.229,3.546c6.045-0.476,18.373-5.674,18.373-5.674s33.278-108.816,33.694-134.012
			c0.416-25.196,5.678-67.95,16.248-70.472s136.367,11.584,150.159-28.151c13.792-39.734-9.108-72.427-9.108-72.427
			L1713.624,1219.549z"/>
		<path style="fill:#F9DDBF;" d="M1786.206,1259.52c-6.704,4.489-18.693,11.409-38.808,12.128
			c-35.996,1.31-80.913-2.983-89.754-11.333c-2.294-2.156-3.417-5.729-3.731-10.259c-0.975-13.813,5.621-36.538,10.052-55.343
			c2.875-12.219,2.935-22.219,1.329-27.614c-4.883-16.423-18.155-50.443-19.465-61.44c-1.31-10.998,11.326-57.455,29.237-65.308
			c44.632-19.567,88.418-8.462,88.418-8.462c27.361,5.554,29.007,60.438,19.92,110.09c-0.236,1.28-0.473,2.551-0.719,3.811
			C1772.84,1196.209,1804.913,1246.985,1786.206,1259.52z"/>
		<g>
			<path style="fill:#FFB27D;" d="M1695.728,1039.168c0.492,3.2,9.251,8.39,27.972,3.455c17.938-4.729,22.71-9.438,22.706-13.293
				c-0.005-4.566-10.415-11.854-10.314-39.951l-2.15,0.424l-36.167,7.162c0,0,0.823,11.382,0.848,22.104
				C1698.646,1028.071,1694.908,1033.843,1695.728,1039.168z"/>
			<path style="fill:#ED975D;" d="M1697.773,996.964c0,0,0.823,11.382,0.848,22.104c20.238-0.57,30.936-19.032,35.319-29.266
				L1697.773,996.964z"/>
			<path style="fill:#FFB27D;" d="M1691.015,1007.117c0,0,47.884,0.79,47.917-29.037c0.032-29.827,6.235-49.813-24.336-51.579
				c-30.571-1.765-36.523,9.61-38.956,19.563C1673.207,956.017,1678.56,1006.144,1691.015,1007.117z"/>
			<path style="fill:#163560;" d="M1692.787,925.771c0,0,13.11,34.993,33.23,40.167c20.12,5.174,28.848-0.217,28.848-0.217
				s-15.433-12.26-18.636-33.661C1736.229,932.06,1702.677,909.116,1692.787,925.771z"/>
			<path style="fill:#163560;" d="M1696.036,928.612c0,0-9.791,7.813-12.178,15.408c-2.388,7.596-3.461,23.232-8.019,22.7
				c0,0-9.877-23.785,1.224-37.239C1688.834,915.213,1696.036,928.612,1696.036,928.612z"/>
		</g>
		<path style="fill:#FFB27D;" d="M1665.254,1547.676c0.364,7.97-10.578,9.385-23.18,9.426s-8.919,2.841-26.292,5.2
			c-17.372,2.358-24.063-2.768-25.204-5.196c-1.017-2.154,7.141-5.063,15.845-8.373c1.095-0.412,2.192-0.84,3.289-1.268
			c9.801-3.844,15.585-12.357,23.439-20.133c7.44-7.365-10.556-41.304-10.556-41.304l21.83-11.669c0,0,4.978,24.478,11.066,45.834
			c1.572,5.519,6.42,14.537,7.966,19.363C1664.29,1542.182,1665.129,1544.867,1665.254,1547.676z"/>
		<path style="fill:#EAC3A0;" d="M1785.251,1253.593c-6.705,4.489-17.738,17.336-37.853,18.055
			c-33.2-7.552-70.998-16.344-93.485-21.592c-0.975-13.813,24.05-10.463,28.48-29.269c29.969-13.848,48.302-35.795,59.924-56.124
			c8.854-15.485,13.352-49.052,13.352-49.052l27.735,26.367c-0.236,1.28-0.473,2.551-0.719,3.811
			C1772.84,1196.209,1803.958,1241.059,1785.251,1253.593z"/>
		<path style="fill:#233862;" d="M1642.074,1557.102c-12.602,0.041-8.919,2.841-26.292,5.2c-17.372,2.358-24.063-2.768-25.204-5.196
			c-1.017-2.154,7.141-5.063,15.845-8.373l0.126,0.154c0,0,11.929,4.762,26.086,1.556c11.539-2.609,22.87-9.019,30.823-10.886
			c0.832,2.625,1.671,5.311,1.796,8.119C1665.618,1555.646,1654.676,1557.061,1642.074,1557.102z"/>
		<path style="fill:#2B478B;" d="M1746.562,1224.92c-45.834-3.525-156.692,12.387-179.33,29.455
			c-27.862,21.006,51.736,248.186,51.736,248.186s9.241,0.895,12.169,0.563c12.642-1.43,21.847-5.316,21.847-5.316
			s-4.364-133.679-13.664-159.255c-8.594-23.633-13.86-31.993-3.094-33.404c10.767-1.412,145.139,15.73,156.354-24.836
			c8.76-31.688-4.184-61.014-4.184-61.014S1782.865,1227.713,1746.562,1224.92z"/>
		<path style="fill:#F9DDBF;" d="M1767.161,1032.989c0,0,14.146,4.505,21.973,24.813c9.784,25.385,17.922,127.728,9.338,137.875
			c-24.155,28.553-104.701,34.604-116.562,38.938l-3.262-13.503c0,0,85.986-43.321,84.674-53.167
			S1740.877,1029.091,1767.161,1032.989z"/>
		<path style="fill:#163560;" d="M1742.82,908.054c0,0-1.966-12.495,15.363-15.719c17.328-3.224,17.652,33.583,19.51,42.457
			c1.856,8.875-2.771,14.189-9.381,14.729C1761.703,950.062,1742.82,908.054,1742.82,908.054z"/>
		<g>
			<path style="fill:#FFB27D;" d="M1677.714,1220.519c0,0-24.488-6.931-30.321-5.31c-5.833,1.62-25.818,14.854-23.008,18.446
				c2.81,3.594,20.415-2.151,28.517-1.063c8.102,1.089,14.367,5.085,20.2,4.221c5.833-0.863,11.932-3.157,11.932-3.157
				L1677.714,1220.519z"/>
			<path style="fill:#FFB27D;" d="M1677.714,1220.519c0,0-11.98-6.156-15.389-9.659c-0.431-0.442-1.157-0.35-1.488,0.171
				c-0.913,1.44-1.768,4.222,2.435,6.987C1669.32,1221.998,1677.714,1220.519,1677.714,1220.519z"/>
		</g>
		<g>
			<path style="fill:#FFB27D;" d="M1591.889,1223.5c0,0-25.412,1.392-30.403,4.817c-4.992,3.426-19.602,22.428-15.777,24.915
				s18.613-8.66,26.629-10.26c8.017-1.6,15.239,0.147,20.477-2.563c5.237-2.71,10.262-6.858,10.262-6.858L1591.889,1223.5z"/>
		</g>
	</g>
	<g>
		<g>
			<g>
				<path style="fill:#172A49;" d="M2566.367,1564.153h0.344c2.03,0,3.662-1.681,3.615-3.721l-5.482-238.983l-16.146-1.895
					l13.77,240.895C2562.586,1562.528,2564.297,1564.153,2566.367,1564.153z"/>
			</g>
			<g>
				<path style="fill:#172A49;" d="M2660.464,1564.153h0.345c2.029,0,3.661-1.681,3.614-3.721l-5.481-238.983l-16.147-1.895
					l13.77,240.895C2656.683,1562.528,2658.394,1564.153,2660.464,1564.153z"/>
			</g>
			<g>
				<path style="fill:#172A49;" d="M2400.811,1564.153h-0.346c-2.029,0-3.661-1.681-3.614-3.721l5.481-238.983l16.148-1.895
					l-13.771,240.895C2404.591,1562.528,2402.881,1564.153,2400.811,1564.153z"/>
			</g>
			<path style="fill:#172A49;" d="M2671.163,1322.564v-175.849c0-30.942-23.224-56.025-51.871-56.025h-117.3
				c-28.648,0-51.872,25.083-51.872,56.025v182.568L2671.163,1322.564z"/>
			<path style="fill:#172A49;" d="M2429.104,1346.875h226.439c8.627,0,15.62-6.994,15.62-15.621v-10.233h-242.06V1346.875z"/>
			<path style="fill:#172A49;" d="M2401.997,1346.875h171.277c6.379,0,11.55-5.172,11.55-11.551v-2.753
				c0-6.379-5.171-11.551-11.55-11.551h-171.277c-6.379,0-11.55,5.172-11.55,11.551v2.753
				C2390.447,1341.703,2395.618,1346.875,2401.997,1346.875z"/>
		</g>
		<g>
			<path style="fill:#1B3051;" d="M2187.313,1564.372h109.026c5.243-6.399,8.184-36.496,7.391-44.206
				c-0.164-1.553-2.122-8.771-2.122-8.771s-40.257-16.982-45.371,5.819c-0.155,0.716-0.345,1.414-0.552,2.104
				c-6.442,21.327-35.342,31.021-52.029,33.721C2192.807,1554.799,2188.797,1560.439,2187.313,1564.372z"/>
			<path style="fill:#233862;" d="M2484.555,1224.056c-3.936,0-149.255,20.316-179.495,54.303
				c-15.106,16.979-54.603,239.455-54.603,239.455s18.365,13.032,58.729,0.816c0,0,53.276-143.951,51.091-184.642
				c-0.604-11.252,129.18-15.959,152.152-21.357c22.974-5.398,51.48-18.64,39.113-40.745
				C2539.174,1249.78,2484.555,1224.056,2484.555,1224.056z"/>
			<path style="fill:#1E3C68;" d="M2259.903,1564.372h109.026c5.244-6.399,3.313-30.013,2.519-37.722
				c-0.164-1.553-0.276-2.458-0.276-2.458s-37.229-29.779-42.344-6.978c-0.155,0.716-0.346,1.414-0.553,2.104
				c-6.441,21.327-35.342,31.021-52.029,33.721C2265.397,1554.799,2261.387,1560.439,2259.903,1564.372z"/>
			<path style="fill:#2B478B;" d="M2542.444,1235.812c-3.937,0-177.493,8.62-207.733,46.054
				c-15.106,18.699-17.353,234.666-17.353,234.666s18.69,23.173,59.055,9.719c0,0,37.092-114.581,34.367-192.606
				c-0.433-12.399,108.03-13.82,137.82-16.19c37.786-3.006,47.333-66.424,34.965-90.771S2542.444,1235.812,2542.444,1235.812z"/>
			<path style="fill:#FFB27D;" d="M2353.452,1235.812l-7.402,4.777c0,0-24.29,4.352-30.915,13.204c0,0-14.199,26.258-4.805,24.479
				s12.97-10.432,26.243-12.663c13.272-2.232,21.589-2.271,24.498-11.476l11.5-10.916L2353.452,1235.812z"/>
			<path style="fill:#F99746;" d="M2439.854,1080.258c-1.809,8.208-2.845,13.761-2.464,14.385
				c5.605,9.213,11.846,53.403,3.554,73.69c-0.729,1.798-0.201,8.335-1.407,10.672c-4.949,9.562-18.245,23.81-31.848,36.999
				l-0.021,0.01c-18.224,17.653-36.987,33.402-36.987,33.402s-5.521,2.412-11.541-1.036c-4.357-2.475-8.619-10.672-8.619-10.672
				c2.75-4.368,20.35-50.157,34.692-79.085c6.135-12.375,15.738-127.475,27.574-142.906c9.868-12.872,48.433-21.577,48.433-21.577
				s-7.722,29.626-14.396,56.725c-2.634,10.726-5.108,21.038-6.875,28.971C2439.918,1079.973,2439.887,1080.12,2439.854,1080.258z"
				/>
			<path style="fill:#FFB27D;" d="M2449.723,950.927c0,0,14.298,23.767,11.246,44.573l21.664,51.102l38.048-59.718
				c0,0-19.069-22.624-26.615-53.392L2449.723,950.927z"/>
			<path style="fill:#FFB27D;" d="M2443.172,969.927c0,0,53.445,2.632,54.607-29.454c1.163-32.086,15.737-53.35-24.23-56.408
				c-32.867-2.515-43.88,11.132-46.873,21.748C2423.683,916.429,2423.369,968.089,2443.172,969.927z"/>
			<path style="fill:#ED7D2B;" d="M2440.944,1168.333c-0.729,1.798-0.201,8.335-1.407,10.672
				c-4.949,9.562-18.245,23.81-31.848,36.999l-0.021,0.01c0,0,13.337-62.098,13.264-88.477
				c-0.063-20.741,10.059-41.197,19.018-47.702c-0.032,0.138-0.063,0.285-0.096,0.423c-1.809,8.208-2.845,13.761-2.464,14.385
				C2442.996,1103.855,2449.236,1148.046,2440.944,1168.333z"/>
			<path style="fill:#F99746;" d="M2587.586,1278.21c-0.155,0.011-168.503,3.452-160.029-42.401
				c1.271-6.884,7.39-35.871,7.193-56.085c-0.145-15.089-30.849-124.138-30.849-124.138s-0.465-38.578,42.536-56.425
				c4.434-1.839,9.31-3.67,14.704-5.003c1.85,5.012,6.958,13.581,20.144,12.124c19.491-2.15,33.422-13.549,39.396-19.398
				c1.085,0,5.392,0.465,5.392,0.465c1.426,4.103-1.352,7.967-0.369,12.318c3.431,15.181,5.395,31.147,14.623,43.125
				c9.115,11.833,16.896,23.48,23.541,34.879c5.52,9.477,10.759,18.581,14.293,27.852c6.428,16.835,11.058,36.945,14.138,57.387
				c1.953,12.979,3.276,26.095,4.04,38.589C2598.86,1242.897,2595.201,1277.538,2587.586,1278.21z"/>
			<path style="fill:#D5E5FB;" d="M2426.121,939.215c0,0-10.652,41.226,6.975,47.145c17.627,5.919,64.539,1.539,64.82-49.079
				c0,0-24.691,14.528-36.441,14.086c-11.752-0.441-19.297-7.268-30.189-2.034C2431.285,949.334,2427.313,949.045,2426.121,939.215z
				"/>
			<path style="fill:#D5E5FB;" d="M2495.541,894.178c-0.879-3.282-4.904-5.027-4.904-5.027
				c-30.031-13.292-52.113,0.925-52.113,0.925c18.601-24.662,63.107-19.197,72.355,3.203c15.101,36.572-12.963,44.003-12.963,44.003
				s-27.906-11.923-11.618-26.565c5.397-4.852,8.019-9.178,8.901-12.95l0,0l0,0C2495.494,896.508,2495.597,895.311,2495.541,894.178
				z"/>
			<g>
				<path style="fill:#233862;" d="M2420.928,1563.151l1.368-403.336c0,0,3.079-29.066,28.419-29.217
					c27.04-0.161,28.765,28.877,28.765,28.877s-0.374,2.513-3.147,2.529c-2.907,0.018-3.4-2.49-3.4-2.49s-1.33-22.387-22.177-22.263
					c-19.536,0.115-21.911,22.525-21.911,22.525l2.397,403.313L2420.928,1563.151z"/>
				<path style="fill:#233862;" d="M2434.717,1563.069l-16.816,0.1l1.393-17.595c0,0-0.158-2.441,3.239-2.6
					c3.157-0.148,9.389-0.636,9.993,1.271C2433.057,1545.92,2434.717,1563.069,2434.717,1563.069z"/>
			</g>
			<path style="fill:#ED7D2B;" d="M2596.338,1201.498c-58.937-2.77-107.787-48.841-107.787-48.841l103.747,10.252
				C2594.251,1175.889,2595.574,1189.004,2596.338,1201.498z"/>
			<path style="fill:#FFB27D;" d="M2485.456,1132.668c0,0-19.875-13.118-33.222-9.07c0,0-23.451,13.516-15.043,18.067
				c8.409,4.552,12.324,0.927,24.025,7.576c11.703,6.648,20.727,6.42,27.337,3.415L2485.456,1132.668z"/>
			<path style="fill:#FFB27D;" d="M2342.085,1258.03c0,0-12.058,12.057-10.163,13.607c1.896,1.55,5.685-1.723,12.058-3.445
				c6.372-1.722,15.452-9.931,16.271-11.995C2361.071,1254.134,2342.085,1258.03,2342.085,1258.03z"/>
			<path style="fill:#ED7D2B;" d="M2488.437,1132.578c0,0,32.089-9.939,40.356-18.023s7.716-32.309,7.716-32.309
				s26.904-3.862,19.671,29.896c-7.234,33.76-7.234,33.76-7.234,33.76L2488.437,1132.578z"/>
			<path style="fill:#F99746;" d="M2522.14,987.043c0,0,37.362,1.063,56.953,26.869c15.012,19.774,48.008,127.981,29.405,154.866
				c-13.683,19.776-95.508,9.458-119.985-15.997c0,0-2.133-2.965-3.099-7.099c-2.025-8.671,0-12.89,0-12.89
				s56.354-1.55,58.423-10.479c4.722-20.38-16.636-60.34-16.636-60.34S2497.043,1021.06,2522.14,987.043z"/>
		</g>
	</g>
	<g style="opacity:0.5;">
		<g>
			<path style="fill:#77A4E5;" d="M2870.591,1447.014c0,0,19.153-22.346,1.181-36.539c0,0-13.128-7.948-23.832-7.303
				c0,0,15.168,25.435,10.261,27.965c-4.907,2.529-14.858-29.561-14.858-29.561s-29.875-2.896-39.485,1.724
				c0,0,25.54,20.899,20.161,22.144s-32.965-19.269-32.965-19.269s-27.805,4.731-26.322,21.693s11.063,22.199,15.274,21.748
				c4.211-0.45,28.843-9.854,29.38-6.403c0.536,3.45-14.291,14.726-24.674,15.254c0,0,19.603,21.618,32.631,15.379
				s14.141-16.129,22.262-19.839c8.121-3.709,15.055-3.7,11.701,0.083c-3.353,3.783-18.051,7.46-22.695,15.676
				c-4.645,8.215-8.812,13.756,4.668,11.728s35.39-11.892,36.352-23.186S2870.591,1447.014,2870.591,1447.014z"/>
			<g>
				<path style="fill:#77A4E5;" d="M2778.393,1428.326c0,0,75.521-2.911,92.198,18.688c0,0,3.688,11.047,15.038,21.105l1.77,4.821
					c0,0-13.087-13.798-17.77-14.633C2869.629,1458.308,2876.952,1431.55,2778.393,1428.326z"/>
				<path style="fill:#77A4E5;" d="M2885.629,1468.119c0,0,16.21,11.988,17.336,33.408l-2.942,0.263c0,0-5.177-22.147-14.534-30.809
					S2885.629,1468.119,2885.629,1468.119z"/>
			</g>
		</g>
		<g>
			<path style="fill:#77A4E5;" d="M2937.559,1418.911c0,0-30.469-17.062-16.25-40.219c0,0,11.375-14.218,23.563-17.874
				c0,0-6.5,34.531,0,35.344s4.469-39,4.469-39s32.094-15.438,44.688-14.219c0,0-19.906,33.719-13.406,32.906
				s28.844-34.938,28.844-34.938s32.906-6.094,38.188,13.406s-3.25,29.249-8.125,30.469c-4.875,1.218-36.156,0.813-35.344,4.875
				s21.938,10.563,33.719,6.905c0,0-13,32.094-30.063,30.469s-22.344-12.187-32.906-13c-10.563-0.812-18.281,2.031-13,4.875
				s23.156,0.933,31.688,8.185c8.531,7.254,15.438,11.722-0.406,14.972s-44.281,1.219-49.969-10.968
				C2937.559,1418.911,2937.559,1418.911,2937.559,1418.911z"/>
			<g>
				<path style="fill:#77A4E5;" d="M3032.621,1360.412c0,0-85.313,27.625-95.063,58.499c0,0,0.406,13.813-8.125,29.656v6.094
					c0,0,8.938-20.719,13.813-23.562C2943.246,1431.1,2924.152,1404.286,3032.621,1360.412z"/>
				<path style="fill:#77A4E5;" d="M2929.434,1448.567c0,0-13.156,19.979-5.656,44.299l3.385-0.909c0,0-3.285-26.786,3.598-40.259
					C2937.644,1438.226,2929.434,1448.567,2929.434,1448.567z"/>
			</g>
		</g>
		<g>
			<path style="fill:#9FC1F4;" d="M2889.086,1395.38c0,0,40.163-22.491,21.42-53.016c0,0-14.994-18.743-31.06-23.563
				c0,0,8.568,45.519,0,46.59s-5.891-51.409-5.891-51.409s-42.306-20.35-58.906-18.743c0,0,26.24,44.447,17.672,43.377
				c-8.568-1.071-38.021-46.055-38.021-46.055s-43.376-8.032-50.338,17.672c-6.962,25.705,4.284,38.558,10.71,40.164
				s47.66,1.07,46.59,6.426c-1.071,5.355-28.918,13.923-44.447,9.104c0,0,17.136,42.306,39.628,40.163
				c22.491-2.142,29.452-16.064,43.376-17.136s24.098,2.678,17.137,6.426c-6.962,3.749-30.524,1.229-41.771,10.789
				c-11.245,9.561-20.349,15.451,0.536,19.735s58.37,1.606,65.867-14.459C2889.086,1395.38,2889.086,1395.38,2889.086,1395.38z"/>
			<g>
				<path style="fill:#9FC1F4;" d="M2763.775,1318.267c0,0,112.458,36.415,125.311,77.113c0,0-0.536,18.208,10.71,39.093v8.032
					c0,0-11.781-27.311-18.208-31.06C2881.588,1411.445,2906.758,1376.102,2763.775,1318.267z"/>
				<path style="fill:#9FC1F4;" d="M2899.796,1434.473c0,0,17.343,26.336,7.456,58.394l-4.462-1.198c0,0,4.331-35.31-4.743-53.069
					C2888.974,1420.84,2899.796,1434.473,2899.796,1434.473z"/>
			</g>
		</g>
		<path style="fill:#9FC1F4;" d="M2890.438,1562.386c-43.45,0-78.673-35.223-78.673-78.673h157.347
			C2969.112,1527.163,2933.889,1562.386,2890.438,1562.386z"/>
		<path style="fill:#AFCDFB;" d="M2871.08,1561.784c3.199,0.399,6.462,0.603,9.774,0.603c43.449,0,78.669-35.226,78.669-78.675
			h-19.544C2939.979,1523.854,2909.918,1556.971,2871.08,1561.784z"/>
		
			<rect x="2809.977" y="1483.712" transform="matrix(-1 -1.224647e-16 1.224647e-16 -1 5781.6758 2969.8369)" style="fill:#77A4E5;" width="161.723" height="2.413"/>
		
			<rect x="2857.352" y="1555.456" transform="matrix(-1 -1.224647e-16 1.224647e-16 -1 5780.1221 3117.8428)" style="fill:#77A4E5;" width="65.419" height="6.931"/>
	</g>
	<g>
		<g>
			<polygon style="fill:#395A8E;" points="753.419,1127.54 562.798,1127.54 581.487,991.17 772.107,991.17 			"/>
			<polygon style="fill:#233862;" points="757.908,1127.54 567.288,1127.54 585.976,991.17 776.596,991.17 			"/>
		</g>
		<g>
			<polygon style="fill:#395A8E;" points="694.628,1050.135 678.495,1159.811 640.283,1159.811 641,1154.936 656.417,1050.135 			
				"/>
			<polygon style="fill:#172A49;" points="681.283,1159.813 643.073,1159.813 659.206,1050.132 697.415,1050.132 			"/>
			<path style="fill:#172A49;" d="M646.561,1159.813h63.321l0,0c0-2.695-2.185-4.88-4.88-4.88H647.28L646.561,1159.813z"/>
			<path style="fill:#395A8E;" d="M670.242,1159.811L670.242,1159.811h-29.959l0.716-4.875h24.367
				C668.059,1154.936,670.242,1157.118,670.242,1159.811z"/>
		</g>
	</g>
	<g>
		<g>
			<path style="fill:#1B3051;" d="M626.563,1562.651H730.1c4.979-6.077,3.145-28.501,2.392-35.822
				c-0.156-1.475-0.262-2.334-0.262-2.334s-35.356-28.28-40.212-6.626c-0.148,0.68-0.328,1.343-0.524,1.998
				c-6.118,20.254-33.562,29.459-49.41,32.022C631.78,1553.561,627.972,1558.917,626.563,1562.651z"/>
			<path style="fill:#ED7D2B;" d="M909.078,1226.223c-3.738,0-177.354,32.598-206.071,68.146
				c-14.346,17.758-16.479,222.851-16.479,222.851s17.75,22.007,56.081,9.229c0,0,28.105-140.321,26.029-182.881
				c-0.574-11.769,118.623-1.703,140.44-7.35c21.816-5.646,75.121-53.105,63.375-76.227
				C960.708,1236.87,909.078,1226.223,909.078,1226.223z"/>
			<path style="fill:#FFB27D;" d="M783.368,1216.588c0,0-11.111,9.588-22.505,12.298c-6.499,1.545-12.794,3.306-16.539,5.024
				c-10.31,4.732-29.866,25.855-28.046,27.956c5.831,6.731,29.318-10.802,33.812-9.563c4.494,1.238-7.371,11.429-2.664,14.197
				c2.458,1.446,7.089-7.357,11.422-8.597c5.862-1.677,9.753-10.529,11.507-11.133c3.417-1.177,17.683-13.97,17.683-13.97
				L783.368,1216.588z"/>
			<path style="fill:#233862;" d="M580.804,1562.651h103.537c4.979-6.077,3.145-28.501,2.392-35.822
				c-0.156-1.475-0.262-2.334-0.262-2.334s-35.356-28.28-40.213-6.626c-0.147,0.68-0.327,1.343-0.524,1.998
				c-6.118,20.254-33.563,29.459-49.41,32.022C586.021,1553.561,582.213,1558.917,580.804,1562.651z"/>
			<path style="fill:#F99746;" d="M857.916,1226.223c-3.738,0-177.354,32.598-206.071,68.146
				c-14.346,17.758-16.479,222.851-16.479,222.851s17.749,22.007,56.081,9.229c0,0,28.105-140.321,26.029-182.881
				c-0.574-11.769,118.623-1.703,140.439-7.35c21.817-5.646,75.122-53.105,63.376-76.227
				C909.547,1236.87,857.916,1226.223,857.916,1226.223z"/>
			<path style="fill:#FFB27D;" d="M868.782,1015.241c12.489-1.031,25.584-4.36,36.902-8.032c14.147-4.591,25.552-11.3,18.203-24.232
				c-6.773-11.918-17.734-38.541-16.994-60.596l-26.326,21.216l-17.883,14.409c0,0,0.074,8.495,2.028,23.384
				c0.358,2.714,0.776,5.644,1.268,8.774c0.398,2.529-0.764,5.056-2.94,6.405c-0.135,0.084-0.27,0.168-0.404,0.253
				C853.75,1002.406,858.321,1016.104,868.782,1015.241z"/>
			<path style="fill:#ED975D;" d="M862.685,954.5c0,0-0.915,3.085,0.657,14.475c15.942-2.601,30.846-15.317,30.846-15.317
				c-8.116-2.228-11.07-10.999-17.116-10.181L862.685,954.5z"/>
			<path style="fill:#FFB27D;" d="M847.938,957.098c0,0,61.326,10.188,67.083-28.1c5.756-38.288,17.549-62.76-21.363-70.883
				c-38.912-8.123-48.733,5.34-53.763,17.652C834.865,888.08,832.134,953.461,847.938,957.098z"/>
			<path style="fill:#233862;" d="M830.876,858.823c-2.634,9.22,4.414,20.45,16.245,24.148c17.561,5.488,13.681,27.03,21.584,26.737
				c7.903-0.293,11.091-12.382,18.149-2.723c6.021,8.239-5.011,18.006-4.252,22.524c1.303,7.756,13.453,23.626,24.402,22.831
				c10.949-0.796,31.438-52.832,27.34-68.93c-4.098-16.098-20.489-33.075-36.002-35.417c-15.513-2.341-37.056,4.357-42.032,4.357
				C851.335,852.35,832.299,853.843,830.876,858.823z"/>
			<path style="fill:#F9DDBF;" d="M815.666,1214.743c1.025,8.838,2.886,14.848,5.81,16.803c9.142,6.124,21.265,13.737,34.793,21.275
				c47.97,26.752,113.646,52.565,127.003,7.357c15.692-53.097,5.383-152.798-10.006-214.724
				c-8.857-35.676-33.36-73.108-49.926-73.071c-28.224,0.048-68.799,7.5-85.184,47.914c-6.342,15.655-15.665,69.91-20.421,119.608
				C814.897,1169.516,813.682,1197.503,815.666,1214.743z"/>
			<path style="fill:#EAC3A0;" d="M926.186,972.724l-8.498-13.661c0,0-55.096,5.587-64.71,38.144
				C852.977,997.207,897.319,973.422,926.186,972.724z"/>
			<path style="fill:#EAC3A0;" d="M815.666,1214.743c1.025,8.838,2.886,14.848,5.81,16.803c9.142,6.124,21.265,13.737,34.793,21.275
				c14.117-8.583,43.1-29.06,49.878-53.192c8.857-31.556,2.649-70.384,2.649-70.384L815.666,1214.743z"/>
			<path style="fill:#F9DDBF;" d="M914.692,1021.282c0,0-4.915,135.62-12.627,162.433c-13.151,45.725-133.096,62.01-133.096,62.01
				s-7.076-8.018-3.911-21.313c0,0,71.707-56.52,73.804-67.278c2.097-10.76-15.624-83.676,4.629-110.191
				C863.744,1020.428,901.085,997.454,914.692,1021.282z"/>
		</g>
		<g>
			<g>
				<path style="fill:#172A49;" d="M1082.082,1565.774l0.395-0.007c3.23-0.06,5.725-2.724,5.42-5.788l-21.548-217.143l-18.803,1.693
					l30.941,218.31C1078.73,1564.546,1080.276,1565.809,1082.082,1565.774z"/>
			</g>
			<g>
				<path style="fill:#172A49;" d="M971.172,1565.774l0.396-0.007c3.229-0.06,5.724-2.724,5.42-5.788l-21.547-217.143l-18.803,1.693
					l30.94,218.31C967.82,1564.546,969.365,1565.809,971.172,1565.774z"/>
			</g>
			<g>
				<path style="fill:#172A49;" d="M762.956,1565.774l-0.396-0.007c-3.229-0.06-5.724-2.724-5.42-5.788l21.548-217.143l18.803,1.693
					l-30.941,218.31C766.308,1564.546,764.762,1565.809,762.956,1565.774z"/>
			</g>
			<path style="fill:#172A49;" d="M1075.993,1312.076l20.451-181.359c2.682-26.137-5.986-51.727-43.364-53.707l-65.756-4.042
				c-38.974-1.622-56.57,31.106-61.503,56.304l-39.037,199.36L1075.993,1312.076z"/>
			<path style="fill:#172A49;" d="M1064.956,1346.012h-291.75c-5.89,0-10.709-4.819-10.709-10.709v-13.343
				c0-5.89,4.819-10.709,10.709-10.709h302.459v24.052C1075.665,1341.192,1070.846,1346.012,1064.956,1346.012z"/>
			<path style="fill:#172A49;" d="M1067.349,1346.012H895.101c-4.574,0-8.317-3.742-8.317-8.316v-18.128
				c0-4.573,3.743-8.316,8.317-8.316h180.564v26.444C1075.665,1342.27,1071.923,1346.012,1067.349,1346.012z"/>
		</g>
	</g>
	<polygon style="fill:#F99746;" points="589.898,464.589 589.898,629.803 588.079,629.803 588.079,464.801 	"/>
	<polygon style="fill:#F99746;" points="806.537,462.685 806.537,629.803 804.707,629.803 804.707,462.58 	"/>
	<rect x="532.073" y="629.801" style="fill:#F99746;" width="316.682" height="79.802"/>
	<g>
		<path style="fill:#FFFFFF;" d="M576.109,655.637l-7.327,2.035l-1.512-5.815l10.933-3.489h5.001v40.996h-7.094V655.637z"/>
	</g>
	<g>
		<rect x="635.623" y="647.57" style="fill:#FFFFFF;" width="179.448" height="5.93"/>
		<rect x="635.623" y="663.9" style="fill:#FFFFFF;" width="147.713" height="5.93"/>
		<rect x="635.623" y="680.229" style="fill:#FFFFFF;" width="105.249" height="5.93"/>
	</g>
	<polygon style="fill:#F99746;" points="1349.573,468.069 1349.573,629.803 1347.743,629.803 1347.743,468.259 	"/>
	<polygon style="fill:#F99746;" points="1566.212,444.207 1566.212,629.803 1564.382,629.803 1564.382,444.408 	"/>
	<rect x="1291.746" y="629.801" style="fill:#F99746;" width="316.683" height="79.802"/>
	<g>
		<path style="fill:#FFFFFF;" d="M1328.279,683.724l14.014-11.921c5.583-4.71,7.618-7.327,7.618-10.991
			c0-4.013-2.849-6.338-6.571-6.338s-6.28,2.035-9.42,6.106l-5.059-3.955c3.896-5.466,7.734-8.548,15.003-8.548
			c7.967,0,13.433,4.885,13.433,12.27c0,6.397-3.431,9.828-10.583,15.759l-8.374,6.978h19.364v6.28h-29.424V683.724z"/>
	</g>
	<g>
		<rect x="1395.296" y="647.57" style="fill:#FFFFFF;" width="179.448" height="5.93"/>
		<rect x="1395.296" y="663.9" style="fill:#FFFFFF;" width="147.713" height="5.93"/>
		<rect x="1395.296" y="680.229" style="fill:#FFFFFF;" width="105.248" height="5.93"/>
	</g>
	<polygon style="fill:#F99746;" points="2102.299,474.585 2102.299,629.803 2100.469,629.803 2100.469,473.908 	"/>
	<polygon style="fill:#F99746;" points="2318.938,523.461 2318.938,629.803 2317.108,629.803 2317.108,523.239 	"/>
	<rect x="2044.472" y="629.801" style="fill:#F99746;" width="316.683" height="79.802"/>
	<g>
		<path style="fill:#FFFFFF;" d="M2080.65,682.91l5.001-4.652c2.907,3.431,6.164,5.35,10.699,5.35c4.013,0,7.036-2.442,7.036-6.28
			c0-4.013-3.663-6.281-9.362-6.281h-3.314l-1.163-4.478l10.991-11.688h-17.62v-6.222h26.924v5.35l-11.34,11.63
			c6.455,0.93,11.979,4.245,11.979,11.572c0,7.502-5.815,12.852-14.247,12.852C2089.14,690.063,2084.081,687.097,2080.65,682.91z"/>
	</g>
	<g>
		<rect x="2148.021" y="647.57" style="fill:#FFFFFF;" width="179.448" height="5.93"/>
		<rect x="2148.021" y="663.9" style="fill:#FFFFFF;" width="147.714" height="5.93"/>
		<rect x="2148.021" y="680.229" style="fill:#FFFFFF;" width="105.249" height="5.93"/>
	</g>
	<path style="fill:#2E3552;" d="M3113.998,1568.899H161.948c-1.652,0-3.003-1.352-3.003-3.003v-0.292
		c0-1.651,1.351-3.002,3.003-3.002h2952.05c1.65,0,3.002,1.351,3.002,3.002v0.292
		C3117,1567.548,3115.648,1568.899,3113.998,1568.899z"/>
</g>
</svg>
